<svg width="100" height="100" viewBox="0 0 100 100" fill="none" xmlns="http://www.w3.org/2000/svg">
<path d="M93.0175 54.1673L61.649 36.0576C60.9425 35.6497 60.1411 35.4351 59.3253 35.4353C58.5095 35.4355 57.7082 35.6506 57.0019 36.0589C56.2956 36.4671 55.7093 37.0542 55.302 37.761C54.8946 38.4678 54.6807 39.2695 54.6815 40.0853V76.3193C54.6807 77.1351 54.8946 77.9367 55.302 78.6435C55.7093 79.3503 56.2956 79.9374 57.0019 80.3457C57.7082 80.7539 58.5095 80.969 59.3253 80.9692C60.1411 80.9694 60.9425 80.7548 61.649 80.3469L93.0175 62.2372C93.7257 61.8282 94.3137 61.24 94.7226 60.5317C95.1314 59.8235 95.3466 59.0201 95.3466 58.2023C95.3466 57.3845 95.1314 56.5811 94.7226 55.8728C94.3137 55.1645 93.7257 54.5763 93.0175 54.1673Z" fill="white"/>
<path d="M7.4818 46.7735L38.865 64.8831C39.5715 65.291 40.373 65.5057 41.1888 65.5055C42.0045 65.5052 42.8059 65.2902 43.5122 64.8819C44.2184 64.4736 44.8047 63.8866 45.2121 63.1797C45.6194 62.4729 45.8334 61.6713 45.8325 60.8555V24.6215C45.836 23.8045 45.6239 23.001 45.2176 22.2921C44.8113 21.5832 44.2253 20.9941 43.5186 20.584C42.8118 20.174 42.0095 19.9577 41.1924 19.9568C40.3754 19.956 39.5726 20.1706 38.865 20.5792L7.4818 38.7035C6.77364 39.1125 6.1856 39.7008 5.77677 40.409C5.36794 41.1173 5.15271 41.9207 5.15271 42.7385C5.15271 43.5563 5.36794 44.3597 5.77677 45.068C6.1856 45.7762 6.77364 46.3644 7.4818 46.7735Z" fill="white"/>
</svg>
